<svg width="3346" height="1870" viewBox="0 0 3346 1870" fill="none" xmlns="http://www.w3.org/2000/svg">
<g clip-path="url(#clip0_109_422)">
<rect width="3346" height="1870" fill="black"/>
<path d="M816.174 957V922.312L801.198 949H797.678L782.638 922.312V957H776.878V911.56H782.958L799.406 941.064L815.918 911.56H821.934V957H816.174ZM846.639 911.56H851.503L870.063 957H863.919L858.543 943.688H839.471L834.159 957H828.015L846.639 911.56ZM857.263 939.208L849.071 918.216L840.623 939.208H857.263ZM876.128 957V911.56H891.872C896.736 911.56 900.789 912.584 904.032 914.632C907.317 916.637 909.77 919.368 911.392 922.824C913.013 926.237 913.824 930.035 913.824 934.216C913.824 938.824 912.928 942.835 911.136 946.248C909.344 949.661 906.805 952.307 903.52 954.184C900.234 956.061 896.352 957 891.872 957H876.128ZM908 934.216C908 930.803 907.36 927.773 906.08 925.128C904.842 922.483 903.029 920.413 900.64 918.92C898.25 917.427 895.328 916.68 891.872 916.68H881.888V951.88H891.872C895.37 951.88 898.314 951.112 900.704 949.576C903.093 947.997 904.906 945.885 906.144 943.24C907.381 940.552 908 937.544 908 934.216ZM952.788 951.88V957H921.94V911.56H952.212V916.68H927.7V931.4H949.012V936.2H927.7V951.88H952.788ZM1007.71 916.68H992.028V957H986.268V916.68H970.588V911.56H1007.71V916.68ZM1031.31 957.32C1028.11 957.32 1025.21 956.68 1022.61 955.4C1020 954.12 1017.74 952.392 1015.82 950.216C1013.94 947.997 1012.49 945.523 1011.47 942.792C1010.45 940.019 1009.93 937.181 1009.93 934.28C1009.93 931.251 1010.47 928.371 1011.53 925.64C1012.64 922.867 1014.16 920.413 1016.08 918.28C1018.04 916.104 1020.32 914.397 1022.93 913.16C1025.53 911.88 1028.37 911.24 1031.44 911.24C1034.64 911.24 1037.54 911.901 1040.14 913.224C1042.74 914.547 1044.98 916.317 1046.86 918.536C1048.74 920.755 1050.19 923.229 1051.21 925.96C1052.24 928.691 1052.75 931.485 1052.75 934.344C1052.75 937.373 1052.22 940.275 1051.15 943.048C1050.08 945.779 1048.57 948.232 1046.61 950.408C1044.69 952.541 1042.42 954.227 1039.82 955.464C1037.22 956.701 1034.38 957.32 1031.31 957.32ZM1015.76 934.28C1015.76 936.584 1016.12 938.824 1016.85 941C1017.61 943.133 1018.68 945.032 1020.05 946.696C1021.41 948.36 1023.05 949.683 1024.97 950.664C1026.89 951.645 1029.03 952.136 1031.37 952.136C1033.81 952.136 1035.98 951.624 1037.9 950.6C1039.82 949.576 1041.44 948.211 1042.77 946.504C1044.13 944.797 1045.15 942.877 1045.84 940.744C1046.56 938.611 1046.93 936.456 1046.93 934.28C1046.93 931.976 1046.54 929.757 1045.77 927.624C1045.05 925.491 1043.98 923.592 1042.57 921.928C1041.21 920.221 1039.57 918.899 1037.65 917.96C1035.77 916.979 1033.68 916.488 1031.37 916.488C1028.94 916.488 1026.77 917 1024.85 918.024C1022.93 919.005 1021.28 920.349 1019.92 922.056C1018.59 923.763 1017.57 925.683 1016.85 927.816C1016.12 929.907 1015.76 932.061 1015.76 934.28ZM1116.24 957V922.312L1101.26 949H1097.74L1082.7 922.312V957H1076.94V911.56H1083.02L1099.47 941.064L1115.98 911.56H1122V957H1116.24ZM1146.7 911.56H1151.57L1170.13 957H1163.98L1158.61 943.688H1139.53L1134.22 957H1128.08L1146.7 911.56ZM1157.33 939.208L1149.13 918.216L1140.69 939.208H1157.33ZM1176.19 957V911.624H1181.95V936.712L1205.37 911.56H1211.58L1193.34 931.592L1212.61 957H1206.14L1189.69 935.048L1181.95 943.112V957H1176.19ZM1248.79 951.88V957H1217.94V911.56H1248.21V916.68H1223.7V931.4H1245.01V936.2H1223.7V951.88H1248.79ZM1312.17 957V922.312L1297.2 949H1293.68L1278.64 922.312V957H1272.88V911.56H1278.96L1295.41 941.064L1311.92 911.56H1317.93V957H1312.17ZM1347.25 957.32C1344.05 957.32 1341.15 956.68 1338.54 955.4C1335.94 954.12 1333.68 952.392 1331.76 950.216C1329.88 947.997 1328.43 945.523 1327.41 942.792C1326.38 940.019 1325.87 937.181 1325.87 934.28C1325.87 931.251 1326.4 928.371 1327.47 925.64C1328.58 922.867 1330.1 920.413 1332.02 918.28C1333.98 916.104 1336.26 914.397 1338.86 913.16C1341.47 911.88 1344.3 911.24 1347.38 911.24C1350.58 911.24 1353.48 911.901 1356.08 913.224C1358.68 914.547 1360.92 916.317 1362.8 918.536C1364.68 920.755 1366.13 923.229 1367.15 925.96C1368.18 928.691 1368.69 931.485 1368.69 934.344C1368.69 937.373 1368.15 940.275 1367.09 943.048C1366.02 945.779 1364.51 948.232 1362.54 950.408C1360.62 952.541 1358.36 954.227 1355.76 955.464C1353.16 956.701 1350.32 957.32 1347.25 957.32ZM1331.7 934.28C1331.7 936.584 1332.06 938.824 1332.78 941C1333.55 943.133 1334.62 945.032 1335.98 946.696C1337.35 948.36 1338.99 949.683 1340.91 950.664C1342.83 951.645 1344.96 952.136 1347.31 952.136C1349.74 952.136 1351.92 951.624 1353.84 950.6C1355.76 949.576 1357.38 948.211 1358.7 946.504C1360.07 944.797 1361.09 942.877 1361.78 940.744C1362.5 938.611 1362.86 936.456 1362.86 934.28C1362.86 931.976 1362.48 929.757 1361.71 927.624C1360.99 925.491 1359.92 923.592 1358.51 921.928C1357.15 920.221 1355.5 918.899 1353.58 917.96C1351.71 916.979 1349.62 916.488 1347.31 916.488C1344.88 916.488 1342.7 917 1340.78 918.024C1338.86 919.005 1337.22 920.349 1335.86 922.056C1334.53 923.763 1333.51 925.683 1332.78 927.816C1332.06 929.907 1331.7 932.061 1331.7 934.28ZM1382.45 922.184V957H1376.69V911.56H1381.55L1409.33 947.08V911.624H1415.09V957H1409.84L1382.45 922.184ZM1456.79 951.88V957H1425.94V911.56H1456.21V916.68H1431.7V931.4H1453.01V936.2H1431.7V951.88H1456.79ZM1466.42 911.56L1480.18 935.24L1494.07 911.56H1500.34L1483.06 940.424V957H1477.3V940.296L1460.08 911.56H1466.42ZM1551.27 916.68H1535.59V957H1529.83V916.68H1514.15V911.56H1551.27V916.68ZM1557.82 957V911.56H1577.27C1579.28 911.56 1581.11 911.987 1582.78 912.84C1584.44 913.651 1585.89 914.76 1587.13 916.168C1588.36 917.533 1589.32 919.091 1590.01 920.84C1590.69 922.547 1591.03 924.296 1591.03 926.088C1591.03 928.179 1590.63 930.163 1589.82 932.04C1589.05 933.917 1587.94 935.517 1586.49 936.84C1585.08 938.163 1583.42 939.08 1581.5 939.592L1592.5 957H1585.98L1575.61 940.68H1563.58V957H1557.82ZM1563.58 935.56H1577.34C1578.91 935.56 1580.28 935.133 1581.43 934.28C1582.63 933.384 1583.54 932.211 1584.18 930.76C1584.87 929.309 1585.21 927.752 1585.21 926.088C1585.21 924.381 1584.82 922.824 1584.06 921.416C1583.29 919.965 1582.28 918.813 1581.05 917.96C1579.81 917.107 1578.44 916.68 1576.95 916.68H1563.58V935.56ZM1613.7 911.56H1618.57L1637.13 957H1630.98L1625.61 943.688H1606.53L1601.22 957H1595.08L1613.7 911.56ZM1624.33 939.208L1616.13 918.216L1607.69 939.208H1624.33ZM1648.95 922.184V957H1643.19V911.56H1648.05L1675.83 947.08V911.624H1681.59V957H1676.34L1648.95 922.184ZM1719.13 921.096C1718.62 920.499 1717.93 919.923 1717.08 919.368C1716.23 918.813 1715.27 918.323 1714.2 917.896C1713.13 917.427 1711.96 917.064 1710.68 916.808C1709.44 916.509 1708.14 916.36 1706.78 916.36C1703.28 916.36 1700.7 917.021 1699.03 918.344C1697.37 919.667 1696.54 921.48 1696.54 923.784C1696.54 925.405 1696.96 926.685 1697.82 927.624C1698.67 928.563 1699.97 929.331 1701.72 929.928C1703.51 930.525 1705.77 931.144 1708.5 931.784C1711.66 932.467 1714.39 933.299 1716.7 934.28C1719 935.261 1720.77 936.584 1722.01 938.248C1723.25 939.869 1723.86 942.045 1723.86 944.776C1723.86 946.952 1723.44 948.851 1722.58 950.472C1721.77 952.051 1720.62 953.373 1719.13 954.44C1717.63 955.464 1715.89 956.232 1713.88 956.744C1711.87 957.213 1709.7 957.448 1707.35 957.448C1705.05 957.448 1702.79 957.213 1700.57 956.744C1698.39 956.232 1696.32 955.507 1694.36 954.568C1692.4 953.629 1690.56 952.456 1688.86 951.048L1691.61 946.184C1692.29 946.909 1693.17 947.635 1694.23 948.36C1695.34 949.043 1696.58 949.683 1697.94 950.28C1699.35 950.877 1700.87 951.368 1702.49 951.752C1704.11 952.093 1705.77 952.264 1707.48 952.264C1710.72 952.264 1713.24 951.688 1715.03 950.536C1716.82 949.341 1717.72 947.613 1717.72 945.352C1717.72 943.645 1717.21 942.28 1716.18 941.256C1715.2 940.232 1713.73 939.379 1711.77 938.696C1709.81 938.013 1707.42 937.331 1704.6 936.648C1701.53 935.88 1698.95 935.048 1696.86 934.152C1694.77 933.213 1693.19 931.997 1692.12 930.504C1691.1 929.011 1690.58 927.069 1690.58 924.68C1690.58 921.779 1691.29 919.325 1692.7 917.32C1694.1 915.315 1696.05 913.8 1698.52 912.776C1700.99 911.752 1703.79 911.24 1706.9 911.24C1708.95 911.24 1710.85 911.453 1712.6 911.88C1714.39 912.307 1716.06 912.904 1717.59 913.672C1719.13 914.44 1720.54 915.357 1721.82 916.424L1719.13 921.096ZM1731.44 957V911.56H1761.46V916.68H1737.2V931.848H1757.62V936.648H1737.2V957H1731.44ZM1799.6 951.88V957H1768.75V911.56H1799.02V916.68H1774.51V931.4H1795.82V936.2H1774.51V951.88H1799.6ZM1807.5 957V911.56H1826.96C1828.96 911.56 1830.8 911.987 1832.46 912.84C1834.13 913.651 1835.58 914.76 1836.81 916.168C1838.05 917.533 1839.01 919.091 1839.69 920.84C1840.38 922.547 1840.72 924.296 1840.72 926.088C1840.72 928.179 1840.31 930.163 1839.5 932.04C1838.73 933.917 1837.63 935.517 1836.17 936.84C1834.77 938.163 1833.1 939.08 1831.18 939.592L1842.19 957H1835.66L1825.29 940.68H1813.26V957H1807.5ZM1813.26 935.56H1827.02C1828.6 935.56 1829.97 935.133 1831.12 934.28C1832.31 933.384 1833.23 932.211 1833.87 930.76C1834.55 929.309 1834.89 927.752 1834.89 926.088C1834.89 924.381 1834.51 922.824 1833.74 921.416C1832.97 919.965 1831.97 918.813 1830.73 917.96C1829.5 917.107 1828.13 916.68 1826.64 916.68H1813.26V935.56ZM1862.04 933.896C1862.04 931.123 1862.55 928.413 1863.58 925.768C1864.6 923.08 1866.09 920.648 1868.06 918.472C1870.02 916.296 1872.41 914.568 1875.22 913.288C1878.04 911.965 1881.24 911.304 1884.82 911.304C1889.09 911.304 1892.78 912.221 1895.9 914.056C1899.05 915.891 1901.4 918.28 1902.94 921.224L1894.87 926.856C1894.19 925.235 1893.27 923.976 1892.12 923.08C1891.01 922.184 1889.77 921.565 1888.41 921.224C1887.09 920.84 1885.81 920.648 1884.57 920.648C1882.56 920.648 1880.81 921.053 1879.32 921.864C1877.83 922.632 1876.59 923.677 1875.61 925C1874.63 926.323 1873.9 927.795 1873.43 929.416C1872.96 931.037 1872.73 932.659 1872.73 934.28C1872.73 936.072 1873.01 937.8 1873.56 939.464C1874.12 941.128 1874.9 942.6 1875.93 943.88C1877 945.16 1878.28 946.184 1879.77 946.952C1881.26 947.677 1882.9 948.04 1884.7 948.04C1885.98 948.04 1887.28 947.827 1888.6 947.4C1889.92 946.973 1891.14 946.312 1892.25 945.416C1893.4 944.477 1894.28 943.261 1894.87 941.768L1903.45 946.824C1902.55 949.043 1901.08 950.941 1899.03 952.52C1896.98 954.099 1894.66 955.315 1892.06 956.168C1889.5 956.979 1886.96 957.384 1884.44 957.384C1881.16 957.384 1878.13 956.723 1875.35 955.4C1872.62 954.035 1870.25 952.243 1868.25 950.024C1866.29 947.763 1864.75 945.245 1863.64 942.472C1862.57 939.656 1862.04 936.797 1862.04 933.896ZM1908.73 957V911.56H1919.22V947.784H1941.24V957H1908.73ZM1978.1 947.784V957H1946.16V911.56H1977.52V920.776H1956.66V929.608H1974.58V938.12H1956.66V947.784H1978.1ZM1995.93 911.56H2007.26L2022.88 957H2012.12L2008.61 946.824H1994.46L1991.01 957H1980.25L1995.93 911.56ZM2006.88 939.592L2001.57 922.12L1996.12 939.592H2006.88ZM2027.35 957V911.56H2047.83C2049.97 911.56 2051.93 912.008 2053.72 912.904C2055.55 913.757 2057.13 914.931 2058.46 916.424C2059.78 917.875 2060.8 919.517 2061.53 921.352C2062.3 923.187 2062.68 925.043 2062.68 926.92C2062.68 928.797 2062.38 930.589 2061.78 932.296C2061.19 933.96 2060.33 935.475 2059.22 936.84C2058.11 938.163 2056.79 939.251 2055.26 940.104L2065.24 957H2053.66L2044.95 942.344H2037.85V957H2027.35ZM2037.85 933.192H2047.45C2048.3 933.192 2049.05 932.936 2049.69 932.424C2050.37 931.869 2050.93 931.123 2051.35 930.184C2051.78 929.245 2051.99 928.157 2051.99 926.92C2051.99 925.683 2051.74 924.616 2051.22 923.72C2050.75 922.781 2050.16 922.056 2049.43 921.544C2048.71 921.032 2047.94 920.776 2047.13 920.776H2037.85V933.192ZM2087.5 957V911.56H2117.52V916.68H2093.26V931.848H2113.68V936.648H2093.26V957H2087.5ZM2142.43 957.32C2139.23 957.32 2136.33 956.68 2133.73 955.4C2131.13 954.12 2128.87 952.392 2126.95 950.216C2125.07 947.997 2123.62 945.523 2122.59 942.792C2121.57 940.019 2121.06 937.181 2121.06 934.28C2121.06 931.251 2121.59 928.371 2122.66 925.64C2123.77 922.867 2125.28 920.413 2127.2 918.28C2129.17 916.104 2131.45 914.397 2134.05 913.16C2136.65 911.88 2139.49 911.24 2142.56 911.24C2145.76 911.24 2148.66 911.901 2151.27 913.224C2153.87 914.547 2156.11 916.317 2157.99 918.536C2159.86 920.755 2161.31 923.229 2162.34 925.96C2163.36 928.691 2163.87 931.485 2163.87 934.344C2163.87 937.373 2163.34 940.275 2162.27 943.048C2161.21 945.779 2159.69 948.232 2157.73 950.408C2155.81 952.541 2153.55 954.227 2150.95 955.464C2148.34 956.701 2145.51 957.32 2142.43 957.32ZM2126.88 934.28C2126.88 936.584 2127.25 938.824 2127.97 941C2128.74 943.133 2129.81 945.032 2131.17 946.696C2132.54 948.36 2134.18 949.683 2136.1 950.664C2138.02 951.645 2140.15 952.136 2142.5 952.136C2144.93 952.136 2147.11 951.624 2149.03 950.6C2150.95 949.576 2152.57 948.211 2153.89 946.504C2155.26 944.797 2156.28 942.877 2156.96 940.744C2157.69 938.611 2158.05 936.456 2158.05 934.28C2158.05 931.976 2157.67 929.757 2156.9 927.624C2156.17 925.491 2155.11 923.592 2153.7 921.928C2152.33 920.221 2150.69 918.899 2148.77 917.96C2146.89 916.979 2144.8 916.488 2142.5 916.488C2140.07 916.488 2137.89 917 2135.97 918.024C2134.05 919.005 2132.41 920.349 2131.04 922.056C2129.72 923.763 2128.7 925.683 2127.97 927.816C2127.25 929.907 2126.88 932.061 2126.88 934.28ZM2171.88 957V911.56H2191.33C2193.34 911.56 2195.17 911.987 2196.84 912.84C2198.5 913.651 2199.95 914.76 2201.19 916.168C2202.43 917.533 2203.39 919.091 2204.07 920.84C2204.75 922.547 2205.09 924.296 2205.09 926.088C2205.09 928.179 2204.69 930.163 2203.88 932.04C2203.11 933.917 2202 935.517 2200.55 936.84C2199.14 938.163 2197.48 939.08 2195.56 939.592L2206.57 957H2200.04L2189.67 940.68H2177.64V957H2171.88ZM2177.64 935.56H2191.4C2192.98 935.56 2194.34 935.133 2195.49 934.28C2196.69 933.384 2197.61 932.211 2198.25 930.76C2198.93 929.309 2199.27 927.752 2199.27 926.088C2199.27 924.381 2198.89 922.824 2198.12 921.416C2197.35 919.965 2196.35 918.813 2195.11 917.96C2193.87 917.107 2192.51 916.68 2191.01 916.68H2177.64V935.56ZM2260.98 951.88V957H2230.13V911.56H2260.4V916.68H2235.89V931.4H2257.2V936.2H2235.89V951.88H2260.98ZM2270.16 911.56L2285.2 949.768L2300.17 911.56H2306.25L2287.82 957H2282.57L2264.08 911.56H2270.16ZM2343.23 951.88V957H2312.38V911.56H2342.65V916.68H2318.14V931.4H2339.45V936.2H2318.14V951.88H2343.23ZM2351.13 957V911.56H2370.58C2372.59 911.56 2374.42 911.987 2376.09 912.84C2377.75 913.651 2379.2 914.76 2380.44 916.168C2381.68 917.533 2382.64 919.091 2383.32 920.84C2384 922.547 2384.34 924.296 2384.34 926.088C2384.34 928.179 2383.94 930.163 2383.13 932.04C2382.36 933.917 2381.25 935.517 2379.8 936.84C2378.39 938.163 2376.73 939.08 2374.81 939.592L2385.82 957H2379.29L2368.92 940.68H2356.89V957H2351.13ZM2356.89 935.56H2370.65C2372.23 935.56 2373.59 935.133 2374.74 934.28C2375.94 933.384 2376.86 932.211 2377.5 930.76C2378.18 929.309 2378.52 927.752 2378.52 926.088C2378.52 924.381 2378.14 922.824 2377.37 921.416C2376.6 919.965 2375.6 918.813 2374.36 917.96C2373.12 917.107 2371.76 916.68 2370.26 916.68H2356.89V935.56ZM2392.92 911.56L2406.68 935.24L2420.57 911.56H2426.84L2409.56 940.424V957H2403.8V940.296L2386.58 911.56H2392.92ZM2448.62 957.32C2445.42 957.32 2442.52 956.68 2439.92 955.4C2437.32 954.12 2435.05 952.392 2433.13 950.216C2431.26 947.997 2429.81 945.523 2428.78 942.792C2427.76 940.019 2427.25 937.181 2427.25 934.28C2427.25 931.251 2427.78 928.371 2428.85 925.64C2429.96 922.867 2431.47 920.413 2433.39 918.28C2435.35 916.104 2437.64 914.397 2440.24 913.16C2442.84 911.88 2445.68 911.24 2448.75 911.24C2451.95 911.24 2454.85 911.901 2457.45 913.224C2460.06 914.547 2462.3 916.317 2464.17 918.536C2466.05 920.755 2467.5 923.229 2468.53 925.96C2469.55 928.691 2470.06 931.485 2470.06 934.344C2470.06 937.373 2469.53 940.275 2468.46 943.048C2467.4 945.779 2465.88 948.232 2463.92 950.408C2462 952.541 2459.74 954.227 2457.13 955.464C2454.53 956.701 2451.69 957.32 2448.62 957.32ZM2433.07 934.28C2433.07 936.584 2433.43 938.824 2434.16 941C2434.93 943.133 2435.99 945.032 2437.36 946.696C2438.72 948.36 2440.37 949.683 2442.29 950.664C2444.21 951.645 2446.34 952.136 2448.69 952.136C2451.12 952.136 2453.29 951.624 2455.21 950.6C2457.13 949.576 2458.76 948.211 2460.08 946.504C2461.44 944.797 2462.47 942.877 2463.15 940.744C2463.88 938.611 2464.24 936.456 2464.24 934.28C2464.24 931.976 2463.85 929.757 2463.09 927.624C2462.36 925.491 2461.29 923.592 2459.89 921.928C2458.52 920.221 2456.88 918.899 2454.96 917.96C2453.08 916.979 2450.99 916.488 2448.69 916.488C2446.25 916.488 2444.08 917 2442.16 918.024C2440.24 919.005 2438.6 920.349 2437.23 922.056C2435.91 923.763 2434.88 925.683 2434.16 927.816C2433.43 929.907 2433.07 932.061 2433.07 934.28ZM2483.83 922.184V957H2478.07V911.56H2482.93L2510.71 947.08V911.624H2516.47V957H2511.22L2483.83 922.184ZM2558.16 951.88V957H2527.32V911.56H2557.59V916.68H2533.08V931.4H2554.39V936.2H2533.08V951.88H2558.16ZM2564.72 957V949.832H2569.46V957H2564.72Z" fill="white"/>
<path d="M252.569 216.688H260.761L265.945 231.728L271.193 216.688H279.321L271.513 237.36L277.273 251.824L290.137 216.56H299.737L281.561 262H273.945L265.945 242.928L258.009 262H250.393L232.281 216.56H241.753L254.681 251.824L260.313 237.36L252.569 216.688ZM342.6 216.56V262H333.832V242.608H313.224V262H304.392V216.56H313.224V234.928H333.832V216.56H342.6ZM357.2 216.56L368.4 237.936L379.792 216.56H389.328L372.816 246.128V262H364.048V246L347.6 216.56H357.2ZM397.402 247.088C397.402 245.723 397.53 244.443 397.786 243.248C398.084 242.011 398.618 240.88 399.386 239.856C400.154 238.832 401.242 237.915 402.65 237.104C403.247 236.72 404.015 236.272 404.954 235.76C405.935 235.248 406.874 234.672 407.77 234.032C408.666 233.349 409.412 232.56 410.01 231.664C410.65 230.725 410.97 229.659 410.97 228.464C410.97 227.269 410.671 226.267 410.074 225.456C409.519 224.645 408.772 224.027 407.834 223.6C406.938 223.173 405.956 222.96 404.89 222.96C403.652 222.96 402.543 223.237 401.562 223.792C400.58 224.304 399.748 224.944 399.066 225.712C398.383 226.48 397.807 227.269 397.338 228.08L391.77 224.24C392.538 222.491 393.583 220.997 394.906 219.76C396.271 218.523 397.828 217.584 399.578 216.944C401.37 216.304 403.226 215.984 405.146 215.984C406.767 215.984 408.367 216.24 409.946 216.752C411.524 217.221 412.954 217.968 414.234 218.992C415.514 220.016 416.538 221.317 417.306 222.896C418.074 224.475 418.458 226.373 418.458 228.592C418.458 229.957 418.287 231.173 417.946 232.24C417.647 233.307 417.199 234.267 416.602 235.12C416.047 235.931 415.343 236.677 414.49 237.36C413.636 238.043 412.719 238.704 411.738 239.344C410.628 240.027 409.498 240.688 408.346 241.328C407.236 241.968 406.298 242.736 405.53 243.632C404.804 244.485 404.442 245.637 404.442 247.088H397.402ZM397.53 262V253.168H404.634V262H397.53Z" fill="#1464FF"/>
<line x1="539.5" y1="2.18557e-08" x2="539.5" y2="1856" stroke="white" stroke-opacity="0.3"/>
<line x1="1693.5" y1="2.18557e-08" x2="1693.5" y2="1856" stroke="white" stroke-opacity="0.3"/>
<line x1="2847.5" y1="2.18557e-08" x2="2847.5" y2="1856" stroke="white" stroke-opacity="0.3"/>
<line x1="1116.5" y1="2.18557e-08" x2="1116.5" y2="1856" stroke="white" stroke-opacity="0.3"/>
<line x1="2270.5" y1="2.18557e-08" x2="2270.5" y2="1856" stroke="white" stroke-opacity="0.3"/>
</g>
<defs>
<clipPath id="clip0_109_422">
<rect width="3346" height="1870" fill="white"/>
</clipPath>
</defs>
</svg>
