<svg width="3341" height="1870" viewBox="0 0 3341 1870" fill="none" xmlns="http://www.w3.org/2000/svg">
<rect width="3341" height="1870" fill="white"/>
<path d="M252.601 216.688H260.793L265.977 231.728L271.225 216.688H279.353L271.545 237.36L277.305 251.824L290.169 216.56H299.769L281.593 262H273.977L265.977 242.928L258.041 262H250.425L232.312 216.56H241.785L254.713 251.824L260.345 237.36L252.601 216.688ZM334.76 262H326.184V243.184C326.184 240.581 325.672 238.64 324.648 237.36C323.666 236.08 322.301 235.44 320.552 235.44C319.528 235.44 318.44 235.739 317.288 236.336C316.136 236.933 315.09 237.765 314.152 238.832C313.256 239.856 312.594 241.051 312.168 242.416V262H303.592V215.28H312.168V234.672C313.405 232.539 315.09 230.875 317.224 229.68C319.357 228.485 321.682 227.888 324.2 227.888C326.376 227.888 328.146 228.272 329.512 229.04C330.877 229.765 331.944 230.768 332.712 232.048C333.48 233.285 334.013 234.693 334.312 236.272C334.61 237.808 334.76 239.408 334.76 241.072V262ZM339.913 252.08C339.913 249.904 340.51 248.005 341.705 246.384C342.942 244.72 344.649 243.44 346.825 242.544C349.001 241.648 351.497 241.2 354.312 241.2C355.721 241.2 357.15 241.307 358.601 241.52C360.051 241.733 361.31 242.075 362.377 242.544V240.752C362.377 238.619 361.737 236.976 360.457 235.824C359.219 234.672 357.363 234.096 354.889 234.096C353.054 234.096 351.305 234.416 349.641 235.056C347.977 235.696 346.227 236.635 344.393 237.872L341.641 232.24C343.859 230.789 346.121 229.701 348.425 228.976C350.771 228.251 353.225 227.888 355.785 227.888C360.563 227.888 364.275 229.083 366.921 231.472C369.609 233.861 370.953 237.275 370.953 241.712V252.4C370.953 253.296 371.102 253.936 371.401 254.32C371.742 254.704 372.275 254.939 373.001 255.024V262C372.233 262.128 371.529 262.235 370.889 262.32C370.291 262.405 369.779 262.448 369.353 262.448C367.646 262.448 366.345 262.064 365.449 261.296C364.595 260.528 364.062 259.589 363.849 258.48L363.657 256.752C362.206 258.629 360.393 260.08 358.217 261.104C356.041 262.128 353.822 262.64 351.561 262.64C349.342 262.64 347.337 262.192 345.545 261.296C343.795 260.357 342.409 259.099 341.385 257.52C340.403 255.899 339.913 254.085 339.913 252.08ZM360.777 253.808C361.246 253.296 361.63 252.784 361.929 252.272C362.227 251.76 362.377 251.291 362.377 250.864V247.472C361.353 247.045 360.243 246.725 359.049 246.512C357.854 246.256 356.723 246.128 355.657 246.128C353.438 246.128 351.603 246.619 350.153 247.6C348.745 248.539 348.041 249.797 348.041 251.376C348.041 252.229 348.275 253.04 348.745 253.808C349.214 254.576 349.897 255.195 350.793 255.664C351.689 256.133 352.755 256.368 353.993 256.368C355.273 256.368 356.531 256.133 357.769 255.664C359.006 255.152 360.009 254.533 360.777 253.808ZM398.75 260.272C398.025 260.571 397.15 260.912 396.126 261.296C395.102 261.68 393.993 261.979 392.798 262.192C391.646 262.448 390.473 262.576 389.278 262.576C387.699 262.576 386.249 262.299 384.926 261.744C383.603 261.189 382.537 260.315 381.726 259.12C380.958 257.883 380.574 256.283 380.574 254.32V235.056H376.158V228.464H380.574V217.584H389.15V228.464H396.19V235.056H389.15V251.44C389.193 252.592 389.513 253.424 390.11 253.936C390.707 254.448 391.454 254.704 392.35 254.704C393.246 254.704 394.121 254.555 394.974 254.256C395.827 253.957 396.51 253.701 397.022 253.488L398.75 260.272ZM400.357 231.728L401.829 223.92H399.269V215.28H407.845V224.048L405.605 231.728H400.357ZM422.631 262.64C419.772 262.64 417.042 262.171 414.439 261.232C411.836 260.293 409.596 258.907 407.719 257.072L410.791 251.504C412.796 253.125 414.759 254.32 416.679 255.088C418.642 255.856 420.519 256.24 422.311 256.24C423.975 256.24 425.298 255.941 426.279 255.344C427.303 254.747 427.815 253.851 427.815 252.656C427.815 251.845 427.538 251.227 426.983 250.8C426.428 250.331 425.618 249.925 424.551 249.584C423.527 249.243 422.268 248.859 420.775 248.432C418.3 247.621 416.231 246.832 414.567 246.064C412.903 245.296 411.644 244.336 410.791 243.184C409.98 241.989 409.575 240.475 409.575 238.64C409.575 236.421 410.13 234.523 411.239 232.944C412.391 231.323 413.97 230.064 415.975 229.168C418.023 228.272 420.412 227.824 423.143 227.824C425.532 227.824 427.794 228.208 429.927 228.976C432.06 229.701 434.002 230.896 435.751 232.56L432.295 238C430.588 236.677 428.967 235.717 427.431 235.12C425.895 234.48 424.338 234.16 422.759 234.16C421.863 234.16 421.01 234.267 420.199 234.48C419.431 234.693 418.791 235.056 418.279 235.568C417.81 236.037 417.575 236.72 417.575 237.616C417.575 238.427 417.788 239.067 418.215 239.536C418.684 239.963 419.367 240.347 420.263 240.688C421.202 241.029 422.332 241.413 423.655 241.84C426.343 242.608 428.604 243.397 430.439 244.208C432.316 245.019 433.724 246.021 434.663 247.216C435.602 248.368 436.071 249.968 436.071 252.016C436.071 255.344 434.855 257.947 432.423 259.824C429.991 261.701 426.727 262.64 422.631 262.64ZM457.279 262V228.464H465.855V262H457.279ZM457.279 223.792V215.28H465.855V223.792H457.279ZM504.76 262H496.184V243.184C496.184 240.496 495.714 238.533 494.776 237.296C493.837 236.059 492.536 235.44 490.872 235.44C489.72 235.44 488.546 235.739 487.352 236.336C486.2 236.933 485.154 237.765 484.216 238.832C483.277 239.856 482.594 241.051 482.168 242.416V262H473.592V228.464H481.336V234.672C482.189 233.221 483.277 232.005 484.6 231.024C485.922 230 487.437 229.232 489.144 228.72C490.893 228.165 492.728 227.888 494.648 227.888C496.738 227.888 498.445 228.272 499.768 229.04C501.133 229.765 502.157 230.768 502.84 232.048C503.565 233.285 504.056 234.693 504.312 236.272C504.61 237.851 504.76 239.451 504.76 241.072V262ZM527.592 262V228.464H536.168V262H527.592ZM527.592 223.792V215.28H536.168V223.792H527.592ZM564 260.272C563.275 260.571 562.4 260.912 561.376 261.296C560.352 261.68 559.243 261.979 558.048 262.192C556.896 262.448 555.723 262.576 554.528 262.576C552.949 262.576 551.499 262.299 550.176 261.744C548.853 261.189 547.787 260.315 546.976 259.12C546.208 257.883 545.824 256.283 545.824 254.32V235.056H541.408V228.464H545.824V217.584H554.4V228.464H561.44V235.056H554.4V251.44C554.443 252.592 554.763 253.424 555.36 253.936C555.957 254.448 556.704 254.704 557.6 254.704C558.496 254.704 559.371 254.555 560.224 254.256C561.077 253.957 561.76 253.701 562.272 253.488L564 260.272ZM572.371 247.088C572.371 245.723 572.499 244.443 572.755 243.248C573.053 242.011 573.587 240.88 574.355 239.856C575.123 238.832 576.211 237.915 577.619 237.104C578.216 236.72 578.984 236.272 579.923 235.76C580.904 235.248 581.843 234.672 582.739 234.032C583.635 233.349 584.381 232.56 584.979 231.664C585.619 230.725 585.939 229.659 585.939 228.464C585.939 227.269 585.64 226.267 585.043 225.456C584.488 224.645 583.741 224.027 582.803 223.6C581.907 223.173 580.925 222.96 579.859 222.96C578.621 222.96 577.512 223.237 576.531 223.792C575.549 224.304 574.717 224.944 574.035 225.712C573.352 226.48 572.776 227.269 572.307 228.08L566.739 224.24C567.507 222.491 568.552 220.997 569.875 219.76C571.24 218.523 572.797 217.584 574.547 216.944C576.339 216.304 578.195 215.984 580.115 215.984C581.736 215.984 583.336 216.24 584.915 216.752C586.493 217.221 587.923 217.968 589.203 218.992C590.483 220.016 591.507 221.317 592.275 222.896C593.043 224.475 593.427 226.373 593.427 228.592C593.427 229.957 593.256 231.173 592.915 232.24C592.616 233.307 592.168 234.267 591.571 235.12C591.016 235.931 590.312 236.677 589.459 237.36C588.605 238.043 587.688 238.704 586.707 239.344C585.597 240.027 584.467 240.688 583.315 241.328C582.205 241.968 581.267 242.736 580.499 243.632C579.773 244.485 579.411 245.637 579.411 247.088H572.371ZM572.499 262V253.168H579.603V262H572.499Z" fill="#1464FF"/>
<path d="M805.017 957V911.56H835.545V919.304H813.849V931.016H831.897V938.184H813.849V957H805.017ZM860.472 957.32C857.144 957.32 854.114 956.68 851.384 955.4C848.696 954.12 846.37 952.392 844.408 950.216C842.488 947.997 840.994 945.523 839.928 942.792C838.861 940.019 838.328 937.181 838.328 934.28C838.328 931.251 838.882 928.371 839.992 925.64C841.144 922.867 842.701 920.413 844.664 918.28C846.669 916.104 849.016 914.397 851.704 913.16C854.434 911.88 857.421 911.24 860.664 911.24C863.949 911.24 866.936 911.901 869.624 913.224C872.354 914.547 874.68 916.317 876.6 918.536C878.52 920.755 880.013 923.229 881.08 925.96C882.146 928.691 882.68 931.507 882.68 934.408C882.68 937.395 882.125 940.275 881.016 943.048C879.906 945.779 878.349 948.232 876.344 950.408C874.381 952.541 872.034 954.227 869.304 955.464C866.616 956.701 863.672 957.32 860.472 957.32ZM847.288 934.28C847.288 936.243 847.586 938.141 848.184 939.976C848.781 941.811 849.634 943.453 850.744 944.904C851.896 946.312 853.282 947.443 854.904 948.296C856.568 949.107 858.445 949.512 860.536 949.512C862.669 949.512 864.568 949.085 866.232 948.232C867.896 947.336 869.282 946.163 870.392 944.712C871.501 943.219 872.333 941.576 872.888 939.784C873.485 937.949 873.784 936.115 873.784 934.28C873.784 932.317 873.464 930.44 872.824 928.648C872.226 926.813 871.352 925.192 870.2 923.784C869.09 922.333 867.704 921.203 866.04 920.392C864.418 919.539 862.584 919.112 860.536 919.112C858.36 919.112 856.44 919.56 854.776 920.456C853.154 921.309 851.789 922.461 850.68 923.912C849.57 925.363 848.717 926.984 848.12 928.776C847.565 930.568 847.288 932.403 847.288 934.28ZM908.719 957.32C905.092 957.32 901.999 956.723 899.439 955.528C896.921 954.291 894.873 952.605 893.295 950.472C891.759 948.339 890.628 945.928 889.903 943.24C889.177 940.509 888.815 937.672 888.815 934.728V911.56H897.647V934.728C897.647 936.605 897.817 938.44 898.159 940.232C898.543 941.981 899.161 943.56 900.015 944.968C900.868 946.376 901.999 947.485 903.407 948.296C904.815 949.107 906.564 949.512 908.655 949.512C910.788 949.512 912.559 949.107 913.967 948.296C915.417 947.443 916.548 946.312 917.359 944.904C918.212 943.496 918.831 941.917 919.215 940.168C919.599 938.376 919.791 936.563 919.791 934.728V911.56H928.559V934.728C928.559 937.843 928.175 940.765 927.407 943.496C926.681 946.227 925.508 948.637 923.887 950.728C922.308 952.776 920.26 954.397 917.743 955.592C915.225 956.744 912.217 957.32 908.719 957.32ZM946.287 927.816V957H937.455V911.56H944.495L967.983 941.512V911.624H976.815V957H969.455L946.287 927.816ZM986.267 957V911.56H1002.78C1007.73 911.56 1011.87 912.584 1015.2 914.632C1018.52 916.637 1021.02 919.368 1022.68 922.824C1024.35 926.237 1025.18 930.035 1025.18 934.216C1025.18 938.824 1024.26 942.835 1022.43 946.248C1020.59 949.661 1017.99 952.307 1014.62 954.184C1011.29 956.061 1007.34 957 1002.78 957H986.267ZM1016.28 934.216C1016.28 931.272 1015.75 928.691 1014.68 926.472C1013.62 924.211 1012.08 922.461 1010.08 921.224C1008.07 919.944 1005.64 919.304 1002.78 919.304H995.099V949.256H1002.78C1005.68 949.256 1008.13 948.616 1010.14 947.336C1012.14 946.013 1013.66 944.221 1014.68 941.96C1015.75 939.656 1016.28 937.075 1016.28 934.216ZM1042.68 911.56H1051.64L1068.35 957H1059.26L1055.03 945.672H1039.16L1035 957H1025.91L1042.68 911.56ZM1053.43 939.464L1047.16 920.712L1040.63 939.464H1053.43ZM1103.06 919.304H1088.54V957H1079.77V919.304H1065.24V911.56H1103.06V919.304ZM1108.7 957V911.56H1117.54V957H1108.7ZM1146.41 957.32C1143.08 957.32 1140.05 956.68 1137.32 955.4C1134.63 954.12 1132.31 952.392 1130.35 950.216C1128.43 947.997 1126.93 945.523 1125.87 942.792C1124.8 940.019 1124.27 937.181 1124.27 934.28C1124.27 931.251 1124.82 928.371 1125.93 925.64C1127.08 922.867 1128.64 920.413 1130.6 918.28C1132.61 916.104 1134.95 914.397 1137.64 913.16C1140.37 911.88 1143.36 911.24 1146.6 911.24C1149.89 911.24 1152.87 911.901 1155.56 913.224C1158.29 914.547 1160.62 916.317 1162.54 918.536C1164.46 920.755 1165.95 923.229 1167.02 925.96C1168.08 928.691 1168.62 931.507 1168.62 934.408C1168.62 937.395 1168.06 940.275 1166.95 943.048C1165.84 945.779 1164.29 948.232 1162.28 950.408C1160.32 952.541 1157.97 954.227 1155.24 955.464C1152.55 956.701 1149.61 957.32 1146.41 957.32ZM1133.23 934.28C1133.23 936.243 1133.52 938.141 1134.12 939.976C1134.72 941.811 1135.57 943.453 1136.68 944.904C1137.83 946.312 1139.22 947.443 1140.84 948.296C1142.51 949.107 1144.38 949.512 1146.47 949.512C1148.61 949.512 1150.51 949.085 1152.17 948.232C1153.83 947.336 1155.22 946.163 1156.33 944.712C1157.44 943.219 1158.27 941.576 1158.83 939.784C1159.42 937.949 1159.72 936.115 1159.72 934.28C1159.72 932.317 1159.4 930.44 1158.76 928.648C1158.16 926.813 1157.29 925.192 1156.14 923.784C1155.03 922.333 1153.64 921.203 1151.98 920.392C1150.36 919.539 1148.52 919.112 1146.47 919.112C1144.3 919.112 1142.38 919.56 1140.71 920.456C1139.09 921.309 1137.73 922.461 1136.62 923.912C1135.51 925.363 1134.65 926.984 1134.06 928.776C1133.5 930.568 1133.23 932.403 1133.23 934.28ZM1184.22 927.816V957H1175.39V911.56H1182.43L1205.92 941.512V911.624H1214.75V957H1207.39L1184.22 927.816ZM1251.28 923.464C1250.98 923.165 1250.42 922.76 1249.61 922.248C1248.84 921.736 1247.88 921.245 1246.73 920.776C1245.62 920.307 1244.41 919.901 1243.08 919.56C1241.76 919.176 1240.42 918.984 1239.05 918.984C1236.66 918.984 1234.85 919.432 1233.61 920.328C1232.42 921.224 1231.82 922.483 1231.82 924.104C1231.82 925.341 1232.2 926.323 1232.97 927.048C1233.74 927.773 1234.89 928.392 1236.43 928.904C1237.96 929.416 1239.88 929.971 1242.19 930.568C1245.18 931.293 1247.76 932.189 1249.93 933.256C1252.15 934.28 1253.84 935.645 1254.99 937.352C1256.18 939.016 1256.78 941.235 1256.78 944.008C1256.78 946.44 1256.33 948.531 1255.44 950.28C1254.54 951.987 1253.3 953.373 1251.72 954.44C1250.15 955.507 1248.35 956.296 1246.35 956.808C1244.34 957.277 1242.21 957.512 1239.95 957.512C1237.69 957.512 1235.43 957.277 1233.16 956.808C1230.9 956.339 1228.73 955.677 1226.64 954.824C1224.55 953.928 1222.63 952.861 1220.88 951.624L1224.78 944.008C1225.16 944.392 1225.85 944.904 1226.83 945.544C1227.81 946.141 1229 946.76 1230.41 947.4C1231.82 947.997 1233.36 948.509 1235.02 948.936C1236.68 949.363 1238.37 949.576 1240.08 949.576C1242.47 949.576 1244.28 949.171 1245.52 948.36C1246.75 947.549 1247.37 946.397 1247.37 944.904C1247.37 943.539 1246.88 942.472 1245.9 941.704C1244.92 940.936 1243.55 940.275 1241.8 939.72C1240.06 939.123 1237.99 938.483 1235.6 937.8C1232.74 936.989 1230.35 936.093 1228.43 935.112C1226.51 934.088 1225.08 932.808 1224.14 931.272C1223.2 929.736 1222.73 927.816 1222.73 925.512C1222.73 922.397 1223.46 919.795 1224.91 917.704C1226.4 915.571 1228.41 913.971 1230.92 912.904C1233.44 911.795 1236.24 911.24 1239.31 911.24C1241.44 911.24 1243.45 911.475 1245.32 911.944C1247.24 912.413 1249.04 913.032 1250.7 913.8C1252.36 914.568 1253.86 915.4 1255.18 916.296L1251.28 923.464ZM1296.34 965.32V907.4H1301.21V965.32H1296.34ZM1340.83 933.96C1340.83 931.187 1341.32 928.477 1342.3 925.832C1343.32 923.144 1344.8 920.712 1346.72 918.536C1348.64 916.317 1350.98 914.568 1353.76 913.288C1356.53 911.965 1359.69 911.304 1363.23 911.304C1367.41 911.304 1371.01 912.221 1374.04 914.056C1377.12 915.891 1379.4 918.28 1380.89 921.224L1374.11 925.896C1373.34 924.189 1372.34 922.845 1371.1 921.864C1369.86 920.84 1368.54 920.136 1367.13 919.752C1365.72 919.325 1364.34 919.112 1362.97 919.112C1360.75 919.112 1358.81 919.56 1357.15 920.456C1355.53 921.352 1354.16 922.525 1353.05 923.976C1351.94 925.427 1351.11 927.048 1350.56 928.84C1350.04 930.632 1349.79 932.424 1349.79 934.216C1349.79 936.221 1350.11 938.163 1350.75 940.04C1351.39 941.875 1352.28 943.517 1353.44 944.968C1354.63 946.376 1356.04 947.507 1357.66 948.36C1359.32 949.171 1361.14 949.576 1363.1 949.576C1364.51 949.576 1365.94 949.341 1367.39 948.872C1368.84 948.403 1370.18 947.656 1371.42 946.632C1372.66 945.608 1373.62 944.285 1374.3 942.664L1381.53 946.824C1380.64 949.085 1379.16 951.005 1377.12 952.584C1375.11 954.163 1372.85 955.357 1370.33 956.168C1367.81 956.979 1365.32 957.384 1362.84 957.384C1359.6 957.384 1356.64 956.723 1353.95 955.4C1351.26 954.035 1348.93 952.243 1346.97 950.024C1345.05 947.763 1343.54 945.245 1342.43 942.472C1341.36 939.656 1340.83 936.819 1340.83 933.96ZM1406.28 957.32C1402.96 957.32 1399.93 956.68 1397.2 955.4C1394.51 954.12 1392.18 952.392 1390.22 950.216C1388.3 947.997 1386.81 945.523 1385.74 942.792C1384.67 940.019 1384.14 937.181 1384.14 934.28C1384.14 931.251 1384.69 928.371 1385.8 925.64C1386.96 922.867 1388.51 920.413 1390.48 918.28C1392.48 916.104 1394.83 914.397 1397.52 913.16C1400.25 911.88 1403.23 911.24 1406.48 911.24C1409.76 911.24 1412.75 911.901 1415.44 913.224C1418.17 914.547 1420.49 916.317 1422.41 918.536C1424.33 920.755 1425.83 923.229 1426.89 925.96C1427.96 928.691 1428.49 931.507 1428.49 934.408C1428.49 937.395 1427.94 940.275 1426.83 943.048C1425.72 945.779 1424.16 948.232 1422.16 950.408C1420.19 952.541 1417.85 954.227 1415.12 955.464C1412.43 956.701 1409.48 957.32 1406.28 957.32ZM1393.1 934.28C1393.1 936.243 1393.4 938.141 1394 939.976C1394.59 941.811 1395.45 943.453 1396.56 944.904C1397.71 946.312 1399.09 947.443 1400.72 948.296C1402.38 949.107 1404.26 949.512 1406.35 949.512C1408.48 949.512 1410.38 949.085 1412.04 948.232C1413.71 947.336 1415.09 946.163 1416.2 944.712C1417.31 943.219 1418.15 941.576 1418.7 939.784C1419.3 937.949 1419.6 936.115 1419.6 934.28C1419.6 932.317 1419.28 930.44 1418.64 928.648C1418.04 926.813 1417.16 925.192 1416.01 923.784C1414.9 922.333 1413.52 921.203 1411.85 920.392C1410.23 919.539 1408.4 919.112 1406.35 919.112C1404.17 919.112 1402.25 919.56 1400.59 920.456C1398.97 921.309 1397.6 922.461 1396.49 923.912C1395.38 925.363 1394.53 926.984 1393.93 928.776C1393.38 930.568 1393.1 932.403 1393.1 934.28ZM1472.32 957V927.176L1460.68 949.384H1455.75L1444.1 927.176V957H1435.27V911.56H1444.74L1458.18 937.416L1471.75 911.56H1481.16V957H1472.32ZM1490.64 957V911.56H1509.91C1512 911.56 1513.92 911.987 1515.67 912.84C1517.42 913.693 1518.93 914.845 1520.21 916.296C1521.53 917.747 1522.56 919.368 1523.28 921.16C1524.01 922.952 1524.37 924.787 1524.37 926.664C1524.37 929.224 1523.77 931.656 1522.58 933.96C1521.38 936.264 1519.74 938.141 1517.65 939.592C1515.56 941.043 1513.08 941.768 1510.23 941.768H1499.47V957H1490.64ZM1499.47 934.024H1509.71C1510.78 934.024 1511.74 933.725 1512.59 933.128C1513.45 932.531 1514.13 931.677 1514.64 930.568C1515.15 929.416 1515.41 928.115 1515.41 926.664C1515.41 925.085 1515.11 923.741 1514.51 922.632C1513.96 921.523 1513.21 920.691 1512.27 920.136C1511.38 919.581 1510.4 919.304 1509.33 919.304H1499.47V934.024ZM1549.91 957.32C1546.58 957.32 1543.55 956.68 1540.82 955.4C1538.13 954.12 1535.81 952.392 1533.85 950.216C1531.93 947.997 1530.43 945.523 1529.37 942.792C1528.3 940.019 1527.77 937.181 1527.77 934.28C1527.77 931.251 1528.32 928.371 1529.43 925.64C1530.58 922.867 1532.14 920.413 1534.1 918.28C1536.11 916.104 1538.45 914.397 1541.14 913.16C1543.87 911.88 1546.86 911.24 1550.1 911.24C1553.39 911.24 1556.37 911.901 1559.06 913.224C1561.79 914.547 1564.12 916.317 1566.04 918.536C1567.96 920.755 1569.45 923.229 1570.52 925.96C1571.58 928.691 1572.12 931.507 1572.12 934.408C1572.12 937.395 1571.56 940.275 1570.45 943.048C1569.34 945.779 1567.79 948.232 1565.78 950.408C1563.82 952.541 1561.47 954.227 1558.74 955.464C1556.05 956.701 1553.11 957.32 1549.91 957.32ZM1536.73 934.28C1536.73 936.243 1537.02 938.141 1537.62 939.976C1538.22 941.811 1539.07 943.453 1540.18 944.904C1541.33 946.312 1542.72 947.443 1544.34 948.296C1546.01 949.107 1547.88 949.512 1549.97 949.512C1552.11 949.512 1554.01 949.085 1555.67 948.232C1557.33 947.336 1558.72 946.163 1559.83 944.712C1560.94 943.219 1561.77 941.576 1562.33 939.784C1562.92 937.949 1563.22 936.115 1563.22 934.28C1563.22 932.317 1562.9 930.44 1562.26 928.648C1561.66 926.813 1560.79 925.192 1559.64 923.784C1558.53 922.333 1557.14 921.203 1555.48 920.392C1553.86 919.539 1552.02 919.112 1549.97 919.112C1547.8 919.112 1545.88 919.56 1544.21 920.456C1542.59 921.309 1541.23 922.461 1540.12 923.912C1539.01 925.363 1538.15 926.984 1537.56 928.776C1537 930.568 1536.73 932.403 1536.73 934.28ZM1587.72 927.816V957H1578.89V911.56H1585.93L1609.42 941.512V911.624H1618.25V957H1610.89L1587.72 927.816ZM1659.26 949.256V957H1627.7V911.56H1658.68V919.304H1636.54V930.248H1655.67V937.416H1636.54V949.256H1659.26ZM1674.97 927.816V957H1666.14V911.56H1673.18L1696.67 941.512V911.624H1705.5V957H1698.14L1674.97 927.816ZM1748.94 919.304H1734.41V957H1725.64V919.304H1711.11V911.56H1748.94V919.304ZM1781.65 923.464C1781.35 923.165 1780.8 922.76 1779.99 922.248C1779.22 921.736 1778.26 921.245 1777.11 920.776C1776 920.307 1774.78 919.901 1773.46 919.56C1772.14 919.176 1770.79 918.984 1769.43 918.984C1767.04 918.984 1765.23 919.432 1763.99 920.328C1762.79 921.224 1762.2 922.483 1762.2 924.104C1762.2 925.341 1762.58 926.323 1763.35 927.048C1764.12 927.773 1765.27 928.392 1766.8 928.904C1768.34 929.416 1770.26 929.971 1772.56 930.568C1775.55 931.293 1778.13 932.189 1780.31 933.256C1782.53 934.28 1784.21 935.645 1785.36 937.352C1786.56 939.016 1787.16 941.235 1787.16 944.008C1787.16 946.44 1786.71 948.531 1785.81 950.28C1784.92 951.987 1783.68 953.373 1782.1 954.44C1780.52 955.507 1778.73 956.296 1776.72 956.808C1774.72 957.277 1772.59 957.512 1770.32 957.512C1768.06 957.512 1765.8 957.277 1763.54 956.808C1761.28 956.339 1759.1 955.677 1757.01 954.824C1754.92 953.928 1753 952.861 1751.25 951.624L1755.16 944.008C1755.54 944.392 1756.22 944.904 1757.2 945.544C1758.19 946.141 1759.38 946.76 1760.79 947.4C1762.2 947.997 1763.73 948.509 1765.4 948.936C1767.06 949.363 1768.75 949.576 1770.45 949.576C1772.84 949.576 1774.65 949.171 1775.89 948.36C1777.13 947.549 1777.75 946.397 1777.75 944.904C1777.75 943.539 1777.26 942.472 1776.28 941.704C1775.29 940.936 1773.93 940.275 1772.18 939.72C1770.43 939.123 1768.36 938.483 1765.97 937.8C1763.11 936.989 1760.72 936.093 1758.8 935.112C1756.88 934.088 1755.45 932.808 1754.52 931.272C1753.58 929.736 1753.11 927.816 1753.11 925.512C1753.11 922.397 1753.83 919.795 1755.28 917.704C1756.78 915.571 1758.78 913.971 1761.3 912.904C1763.82 911.795 1766.61 911.24 1769.68 911.24C1771.82 911.24 1773.82 911.475 1775.7 911.944C1777.62 912.413 1779.41 913.032 1781.08 913.8C1782.74 914.568 1784.23 915.4 1785.56 916.296L1781.65 923.464ZM1826.72 965.32V907.4H1831.58V965.32H1826.72ZM1873.95 957V911.56H1893.22C1895.31 911.56 1897.23 911.987 1898.98 912.84C1900.73 913.693 1902.24 914.845 1903.52 916.296C1904.85 917.747 1905.87 919.368 1906.59 921.16C1907.32 922.952 1907.68 924.787 1907.68 926.664C1907.68 929.224 1907.09 931.656 1905.89 933.96C1904.7 936.264 1903.05 938.141 1900.96 939.592C1898.87 941.043 1896.4 941.768 1893.54 941.768H1882.79V957H1873.95ZM1882.79 934.024H1893.03C1894.09 934.024 1895.05 933.725 1895.91 933.128C1896.76 932.531 1897.44 931.677 1897.95 930.568C1898.47 929.416 1898.72 928.115 1898.72 926.664C1898.72 925.085 1898.42 923.741 1897.83 922.632C1897.27 921.523 1896.53 920.691 1895.59 920.136C1894.69 919.581 1893.71 919.304 1892.64 919.304H1882.79V934.024ZM1922.87 911.56H1931.83L1948.53 957H1939.45L1935.22 945.672H1919.35L1915.19 957H1906.1L1922.87 911.56ZM1933.62 939.464L1927.35 920.712L1920.82 939.464H1933.62ZM1983.25 919.304H1968.72V957H1959.96V919.304H1945.43V911.56H1983.25V919.304ZM2022.88 919.304H2008.35V957H1999.58V919.304H1985.05V911.56H2022.88V919.304ZM2060.07 949.256V957H2028.52V911.56H2059.49V919.304H2037.35V930.248H2056.49V937.416H2037.35V949.256H2060.07ZM2066.95 957V911.56H2087.05C2089.14 911.56 2091.06 911.987 2092.81 912.84C2094.6 913.693 2096.14 914.845 2097.42 916.296C2098.74 917.747 2099.74 919.368 2100.43 921.16C2101.15 922.952 2101.51 924.787 2101.51 926.664C2101.51 928.584 2101.17 930.44 2100.49 932.232C2099.85 933.981 2098.91 935.517 2097.67 936.84C2096.44 938.163 2094.99 939.187 2093.32 939.912L2103.69 957H2093.96L2084.62 941.768H2075.79V957H2066.95ZM2075.79 934.024H2086.86C2087.97 934.024 2088.95 933.704 2089.8 933.064C2090.66 932.381 2091.34 931.485 2091.85 930.376C2092.36 929.267 2092.62 928.029 2092.62 926.664C2092.62 925.213 2092.32 923.955 2091.72 922.888C2091.13 921.779 2090.36 920.904 2089.42 920.264C2088.52 919.624 2087.54 919.304 2086.47 919.304H2075.79V934.024ZM2118.35 927.816V957H2109.52V911.56H2116.56L2140.05 941.512V911.624H2148.88V957H2141.52L2118.35 927.816ZM2191.22 965.32V907.4H2196.08V965.32H2191.22ZM2235.7 933.96C2235.7 931.187 2236.19 928.477 2237.17 925.832C2238.2 923.144 2239.67 920.712 2241.59 918.536C2243.51 916.317 2245.86 914.568 2248.63 913.288C2251.4 911.965 2254.56 911.304 2258.1 911.304C2262.28 911.304 2265.89 912.221 2268.92 914.056C2271.99 915.891 2274.27 918.28 2275.77 921.224L2268.98 925.896C2268.21 924.189 2267.21 922.845 2265.97 921.864C2264.74 920.84 2263.41 920.136 2262.01 919.752C2260.6 919.325 2259.21 919.112 2257.85 919.112C2255.63 919.112 2253.69 919.56 2252.02 920.456C2250.4 921.352 2249.04 922.525 2247.93 923.976C2246.82 925.427 2245.99 927.048 2245.43 928.84C2244.92 930.632 2244.66 932.424 2244.66 934.216C2244.66 936.221 2244.98 938.163 2245.62 940.04C2246.26 941.875 2247.16 943.517 2248.31 944.968C2249.51 946.376 2250.91 947.507 2252.53 948.36C2254.2 949.171 2256.01 949.576 2257.97 949.576C2259.38 949.576 2260.81 949.341 2262.26 948.872C2263.71 948.403 2265.06 947.656 2266.29 946.632C2267.53 945.608 2268.49 944.285 2269.17 942.664L2276.41 946.824C2275.51 949.085 2274.04 951.005 2271.99 952.584C2269.99 954.163 2267.72 955.357 2265.21 956.168C2262.69 956.979 2260.19 957.384 2257.72 957.384C2254.48 957.384 2251.51 956.723 2248.82 955.4C2246.13 954.035 2243.81 952.243 2241.85 950.024C2239.93 947.763 2238.41 945.245 2237.3 942.472C2236.24 939.656 2235.7 936.819 2235.7 933.96ZM2301.16 957.32C2297.83 957.32 2294.8 956.68 2292.07 955.4C2289.38 954.12 2287.06 952.392 2285.1 950.216C2283.18 947.997 2281.68 945.523 2280.62 942.792C2279.55 940.019 2279.02 937.181 2279.02 934.28C2279.02 931.251 2279.57 928.371 2280.68 925.64C2281.83 922.867 2283.39 920.413 2285.35 918.28C2287.36 916.104 2289.7 914.397 2292.39 913.16C2295.12 911.88 2298.11 911.24 2301.35 911.24C2304.64 911.24 2307.62 911.901 2310.31 913.224C2313.04 914.547 2315.37 916.317 2317.29 918.536C2319.21 920.755 2320.7 923.229 2321.77 925.96C2322.83 928.691 2323.37 931.507 2323.37 934.408C2323.37 937.395 2322.81 940.275 2321.7 943.048C2320.59 945.779 2319.04 948.232 2317.03 950.408C2315.07 952.541 2312.72 954.227 2309.99 955.464C2307.3 956.701 2304.36 957.32 2301.16 957.32ZM2287.98 934.28C2287.98 936.243 2288.27 938.141 2288.87 939.976C2289.47 941.811 2290.32 943.453 2291.43 944.904C2292.58 946.312 2293.97 947.443 2295.59 948.296C2297.26 949.107 2299.13 949.512 2301.22 949.512C2303.36 949.512 2305.26 949.085 2306.92 948.232C2308.58 947.336 2309.97 946.163 2311.08 944.712C2312.19 943.219 2313.02 941.576 2313.58 939.784C2314.17 937.949 2314.47 936.115 2314.47 934.28C2314.47 932.317 2314.15 930.44 2313.51 928.648C2312.91 926.813 2312.04 925.192 2310.89 923.784C2309.78 922.333 2308.39 921.203 2306.73 920.392C2305.11 919.539 2303.27 919.112 2301.22 919.112C2299.05 919.112 2297.13 919.56 2295.46 920.456C2293.84 921.309 2292.48 922.461 2291.37 923.912C2290.26 925.363 2289.4 926.984 2288.81 928.776C2288.25 930.568 2287.98 932.403 2287.98 934.28ZM2338.97 927.816V957H2330.14V911.56H2337.18L2360.67 941.512V911.624H2369.5V957H2362.14L2338.97 927.816ZM2412.94 919.304H2398.41V957H2389.64V919.304H2375.11V911.56H2412.94V919.304ZM2450.13 949.256V957H2418.58V911.56H2449.56V919.304H2427.41V930.248H2446.55V937.416H2427.41V949.256H2450.13ZM2465.85 927.816V957H2457.02V911.56H2464.06L2487.55 941.512V911.624H2496.38V957H2489.02L2465.85 927.816ZM2539.81 919.304H2525.29V957H2516.52V919.304H2501.99V911.56H2539.81V919.304Z" fill="black"/>
</svg>
